<?xml version="1.0" encoding="UTF-8" standalone="no"?>
<!-- Created with Inkscape (http://www.inkscape.org/) -->

<svg
   xmlns:dc="http://purl.org/dc/elements/1.1/"
   xmlns:cc="http://creativecommons.org/ns#"
   xmlns:rdf="http://www.w3.org/1999/02/22-rdf-syntax-ns#"
   xmlns:svg="http://www.w3.org/2000/svg"
   xmlns="http://www.w3.org/2000/svg"
   xmlns:sodipodi="http://sodipodi.sourceforge.net/DTD/sodipodi-0.dtd"
   xmlns:inkscape="http://www.inkscape.org/namespaces/inkscape"
   width="16.8487mm"
   height="25.4mm"
   viewBox="0 0 16.8487 25.4"
   version="1.1"
   id="svg28"
   inkscape:version="0.92.2 5c3e80d, 2017-08-06"
   sodipodi:docname="InnovationToday-Logo-Black.svg">
  <defs
     id="defs22" />
  <sodipodi:namedview
     id="base"
     pagecolor="#ffffff"
     bordercolor="#666666"
     borderopacity="1.0"
     inkscape:pageopacity="0.0"
     inkscape:pageshadow="2"
     inkscape:zoom="7.9195959"
     inkscape:cx="40.169282"
     inkscape:cy="49.885445"
     inkscape:document-units="mm"
     inkscape:current-layer="layer1"
     showgrid="false"
     fit-margin-top="0"
     fit-margin-left="0"
     fit-margin-right="0"
     fit-margin-bottom="0"
     inkscape:window-width="1920"
     inkscape:window-height="998"
     inkscape:window-x="75"
     inkscape:window-y="0"
     inkscape:window-maximized="0" />
  <metadata
     id="metadata25">
    <rdf:RDF>
      <cc:Work
         rdf:about="">
        <dc:format>image/svg+xml</dc:format>
        <dc:type
           rdf:resource="http://purl.org/dc/dcmitype/StillImage" />
        <dc:title></dc:title>
      </cc:Work>
    </rdf:RDF>
  </metadata>
  <g
     inkscape:label="Layer 1"
     inkscape:groupmode="layer"
     id="layer1"
     transform="translate(-94.385193,-121.77024)">
    <rect
       style="opacity:1;fill:#000000;fill-opacity:1;stroke-width:0.19268;enable-background:new"
       id="rect5455"
       width="16.8487"
       height="25.4"
       x="94.385193"
       y="121.77024"
       ry="1.6717622" />
    <g
       aria-label="innovation"
       style="font-style:normal;font-variant:normal;font-weight:normal;font-stretch:normal;font-size:7.05555534px;line-height:125%;font-family:'Bebas Neue';-inkscape-font-specification:'Bebas Neue';letter-spacing:0px;word-spacing:0px;fill:#61c9c2;fill-opacity:1;stroke:none;stroke-width:0.26458332px;stroke-linecap:butt;stroke-linejoin:miter;stroke-opacity:1"
       id="text4797">
      <path
         d="m 97.599528,129.12173 h 0.329847 v -2.09902 h -0.329847 z"
         style="font-style:normal;font-variant:normal;font-weight:normal;font-stretch:normal;font-size:2.99861097px;font-family:'Bebas Neue';-inkscape-font-specification:'Bebas Neue';fill:#61c9c2;fill-opacity:1;stroke-width:0.26458332px"
         id="path924" />
      <path
         d="m 98.872298,129.12173 h 0.338843 v -2.09902 h -0.293864 v 1.25641 l -0.338843,-1.25641 h -0.413808 v 2.09902 h 0.296862 v -1.52029 z"
         style="font-style:normal;font-variant:normal;font-weight:normal;font-stretch:normal;font-size:2.99861097px;font-family:'Bebas Neue';-inkscape-font-specification:'Bebas Neue';fill:#61c9c2;fill-opacity:1;stroke-width:0.26458332px"
         id="path926" />
      <path
         d="m 100.15491,129.12173 h 0.33884 v -2.09902 h -0.29386 v 1.25641 l -0.338847,-1.25641 h -0.413808 v 2.09902 h 0.296862 v -1.52029 z"
         style="font-style:normal;font-variant:normal;font-weight:normal;font-stretch:normal;font-size:2.99861097px;font-family:'Bebas Neue';-inkscape-font-specification:'Bebas Neue';fill:#61c9c2;fill-opacity:1;stroke-width:0.26458332px"
         id="path928" />
      <path
         d="m 101.0357,127.50548 c 0,-0.14993 0.066,-0.2069 0.17092,-0.2069 0.10495,0 0.17092,0.057 0.17092,0.2069 v 1.13348 c 0,0.14993 -0.066,0.2069 -0.17092,0.2069 -0.10495,0 -0.17092,-0.057 -0.17092,-0.2069 z m -0.32985,1.11249 c 0,0.33584 0.17692,0.52775 0.50077,0.52775 0.32385,0 0.50077,-0.19191 0.50077,-0.52775 v -1.0915 c 0,-0.33584 -0.17692,-0.52775 -0.50077,-0.52775 -0.32385,0 -0.50077,0.19191 -0.50077,0.52775 z"
         style="font-style:normal;font-variant:normal;font-weight:normal;font-stretch:normal;font-size:2.99861097px;font-family:'Bebas Neue';-inkscape-font-specification:'Bebas Neue';fill:#61c9c2;fill-opacity:1;stroke-width:0.26458332px"
         id="path930" />
      <path
         d="m 102.16177,127.02271 h -0.33284 l 0.32385,2.09902 h 0.49177 l 0.32385,-2.09902 h -0.30286 l -0.25188,1.7122 z"
         style="font-style:normal;font-variant:normal;font-weight:normal;font-stretch:normal;font-size:2.99861097px;font-family:'Bebas Neue';-inkscape-font-specification:'Bebas Neue';fill:#61c9c2;fill-opacity:1;stroke-width:0.26458332px"
         id="path932" />
      <path
         d="m 103.77789,127.02271 h -0.48278 l -0.33585,2.09902 h 0.30286 l 0.057,-0.38082 h 0.40481 l 0.057,0.38082 h 0.33285 z m -0.25789,0.37182 0.15893,1.06151 h -0.31785 z"
         style="font-style:normal;font-variant:normal;font-weight:normal;font-stretch:normal;font-size:2.99861097px;font-family:'Bebas Neue';-inkscape-font-specification:'Bebas Neue';fill:#61c9c2;fill-opacity:1;stroke-width:0.26458332px"
         id="path934" />
      <path
         d="m 104.05718,127.32257 h 0.34484 v 1.79916 h 0.32985 v -1.79916 h 0.34484 v -0.29986 h -1.01953 z"
         style="font-style:normal;font-variant:normal;font-weight:normal;font-stretch:normal;font-size:2.99861097px;font-family:'Bebas Neue';-inkscape-font-specification:'Bebas Neue';fill:#61c9c2;fill-opacity:1;stroke-width:0.26458332px"
         id="path936" />
      <path
         d="m 105.21905,129.12173 h 0.32984 v -2.09902 h -0.32984 z"
         style="font-style:normal;font-variant:normal;font-weight:normal;font-stretch:normal;font-size:2.99861097px;font-family:'Bebas Neue';-inkscape-font-specification:'Bebas Neue';fill:#61c9c2;fill-opacity:1;stroke-width:0.26458332px"
         id="path938" />
      <path
         d="m 106.09,127.50548 c 0,-0.14993 0.066,-0.2069 0.17092,-0.2069 0.10495,0 0.17092,0.057 0.17092,0.2069 v 1.13348 c 0,0.14993 -0.066,0.2069 -0.17092,0.2069 -0.10495,0 -0.17092,-0.057 -0.17092,-0.2069 z m -0.32985,1.11249 c 0,0.33584 0.17692,0.52775 0.50077,0.52775 0.32385,0 0.50077,-0.19191 0.50077,-0.52775 v -1.0915 c 0,-0.33584 -0.17692,-0.52775 -0.50077,-0.52775 -0.32385,0 -0.50077,0.19191 -0.50077,0.52775 z"
         style="font-style:normal;font-variant:normal;font-weight:normal;font-stretch:normal;font-size:2.99861097px;font-family:'Bebas Neue';-inkscape-font-specification:'Bebas Neue';fill:#61c9c2;fill-opacity:1;stroke-width:0.26458332px"
         id="path940" />
      <path
         d="m 107.68072,129.12173 h 0.33884 v -2.09902 h -0.29386 v 1.25641 l -0.33885,-1.25641 h -0.4138 v 2.09902 h 0.29686 v -1.52029 z"
         style="font-style:normal;font-variant:normal;font-weight:normal;font-stretch:normal;font-size:2.99861097px;font-family:'Bebas Neue';-inkscape-font-specification:'Bebas Neue';fill:#61c9c2;fill-opacity:1;stroke-width:0.26458332px"
         id="path942" />
    </g>
    <g
       aria-label="oday"
       style="font-style:normal;font-variant:normal;font-weight:bold;font-stretch:normal;font-size:3.52777767px;line-height:125%;font-family:'Bebas Neue';-inkscape-font-specification:'Bebas Neue Bold';letter-spacing:0px;word-spacing:0px;writing-mode:lr-tb;fill:#61c9c2;fill-opacity:1;stroke:none;stroke-width:0.26458332px;stroke-linecap:butt;stroke-linejoin:miter;stroke-opacity:1"
       id="text4801">
      <path
         d="m 104.40081,129.87726 c 0,-0.14993 0.066,-0.20691 0.17092,-0.20691 0.10495,0 0.17092,0.057 0.17092,0.20691 v 1.13347 c 0,0.14993 -0.066,0.20691 -0.17092,0.20691 -0.10495,0 -0.17092,-0.057 -0.17092,-0.20691 z m -0.32985,1.11248 c 0,0.33585 0.17692,0.52776 0.50077,0.52776 0.32385,0 0.50077,-0.19191 0.50077,-0.52776 v -1.09149 c 0,-0.33585 -0.17692,-0.52776 -0.50077,-0.52776 -0.32385,0 -0.50077,0.19191 -0.50077,0.52776 z"
         style="font-size:2.99861097px;letter-spacing:-0.68791664px;writing-mode:vertical-lr;text-orientation:upright;fill:#61c9c2;fill-opacity:1;stroke-width:0.26458332px"
         id="path945" />
      <path
         d="m 104.08331,133.8042 h 0.52176 c 0.32984,0 0.49177,-0.18291 0.49177,-0.51876 v -1.06151 c 0,-0.33584 -0.16193,-0.51876 -0.49177,-0.51876 h -0.52176 z m 0.51576,-1.79916 c 0.10495,0 0.16792,0.054 0.16792,0.2039 v 1.0915 c 0,0.14993 -0.063,0.2039 -0.16792,0.2039 h -0.18591 v -1.4993 z"
         style="font-size:2.99861097px;letter-spacing:-0.68791664px;writing-mode:vertical-lr;text-orientation:upright;fill:#61c9c2;fill-opacity:1;stroke-width:0.26458332px"
         id="path947" />
      <path
         d="m 104.88818,134.01587 h -0.48278 l -0.33584,2.09903 h 0.30286 l 0.057,-0.38083 h 0.40481 l 0.057,0.38083 h 0.33284 z m -0.25788,0.37183 0.15892,1.06151 h -0.31785 z"
         style="font-size:2.99861097px;letter-spacing:-0.68791664px;writing-mode:vertical-lr;text-orientation:upright;fill:#61c9c2;fill-opacity:1;stroke-width:0.26458332px"
         id="path949" />
      <path
         d="m 104.40681,138.42559 h 0.32984 v -0.69568 l 0.41681,-1.40335 h -0.31485 l -0.25189,0.95656 -0.25188,-0.95656 H 103.99 l 0.41681,1.40335 z"
         style="font-size:2.99861097px;letter-spacing:-0.68791664px;writing-mode:vertical-lr;text-orientation:upright;fill:#61c9c2;fill-opacity:1;stroke-width:0.26458332px"
         id="path951" />
    </g>
    <g
       aria-label="go indie"
       style="font-style:normal;font-variant:normal;font-weight:bold;font-stretch:normal;font-size:3.52777767px;line-height:125%;font-family:'Bebas Neue';-inkscape-font-specification:'Bebas Neue Bold';letter-spacing:0px;word-spacing:0px;fill:#61c9c2;fill-opacity:1;stroke:none;stroke-width:0.26458332px;stroke-linecap:butt;stroke-linejoin:miter;stroke-opacity:1"
       id="text4813">
      <path
         d="m 98.328031,143.33879 h 0.211666 v 0.5461 c 0,0.21166 -0.09313,0.28786 -0.2413,0.28786 -0.148166,0 -0.2413,-0.0762 -0.2413,-0.28786 v -1.6002 c 0,-0.21167 0.09313,-0.2921 0.2413,-0.2921 0.148167,0 0.2413,0.0804 0.2413,0.2921 v 0.3175 h 0.440267 v -0.28787 c 0,-0.47413 -0.237067,-0.74507 -0.694267,-0.74507 -0.4572,0 -0.694266,0.27094 -0.694266,0.74507 v 1.54093 c 0,0.47414 0.237066,0.74507 0.694266,0.74507 0.4572,0 0.694267,-0.27093 0.694267,-0.74507 v -0.9398 h -0.651933 z"
         style="font-size:4.23333311px;stroke-width:0.26458332px;fill:#61c9c2;fill-opacity:1"
         id="path954" />
      <path
         d="m 99.710743,142.28469 c 0,-0.21167 0.09313,-0.2921 0.2413,-0.2921 0.148167,0 0.241297,0.0804 0.241297,0.2921 v 1.6002 c 0,0.21166 -0.0931,0.2921 -0.241297,0.2921 -0.148167,0 -0.2413,-0.0804 -0.2413,-0.2921 z m -0.465666,1.57056 c 0,0.47414 0.249766,0.74507 0.706966,0.74507 0.457197,0 0.706967,-0.27093 0.706967,-0.74507 v -1.54093 c 0,-0.47413 -0.24977,-0.74507 -0.706967,-0.74507 -0.4572,0 -0.706966,0.27094 -0.706966,0.74507 z"
         style="font-size:4.23333311px;stroke-width:0.26458332px;fill:#61c9c2;fill-opacity:1"
         id="path956" />
      <path
         d="m 101.61482,144.56645 h 0.46566 v -2.96333 h -0.46566 z"
         style="font-size:4.23333311px;stroke-width:0.26458332px;fill:#61c9c2;fill-opacity:1"
         id="path958" />
      <path
         d="m 103.41167,144.56645 h 0.47837 v -2.96333 h -0.41487 v 1.77377 l -0.47837,-1.77377 h -0.5842 v 2.96333 h 0.4191 v -2.1463 z"
         style="font-size:4.23333311px;stroke-width:0.26458332px;fill:#61c9c2;fill-opacity:1"
         id="path960" />
      <path
         d="m 104.22758,144.56645 h 0.7366 c 0.46566,0 0.69426,-0.25823 0.69426,-0.73236 v -1.4986 c 0,-0.47414 -0.2286,-0.73237 -0.69426,-0.73237 h -0.7366 z m 0.72813,-2.54 c 0.14817,0 0.23707,0.0762 0.23707,0.28787 v 1.54093 c 0,0.21167 -0.0889,0.28787 -0.23707,0.28787 h -0.26247 v -2.11667 z"
         style="font-size:4.23333311px;stroke-width:0.26458332px;fill:#61c9c2;fill-opacity:1"
         id="path962" />
      <path
         d="m 105.95564,144.56645 h 0.46566 v -2.96333 h -0.46566 z"
         style="font-size:4.23333311px;stroke-width:0.26458332px;fill:#61c9c2;fill-opacity:1"
         id="path964" />
      <path
         d="m 107.22332,142.02645 h 0.80433 v -0.42333 h -1.26999 v 2.96333 h 1.26999 v -0.42333 h -0.80433 v -0.86783 h 0.63923 v -0.42334 h -0.63923 z"
         style="font-size:4.23333311px;stroke-width:0.26458332px;fill:#61c9c2;fill-opacity:1"
         id="path966" />
    </g>
    <path
       style="opacity:1;fill:#61c9c2;fill-opacity:1;stroke-width:0.17385095"
       d="m 98.531421,122.8438 a 2.5011479,2.5011479 0 0 0 -2.501138,2.50114 2.5011479,2.5011479 0 0 0 0.608748,1.63091 7.4624634,7.4624628 0 0 1 4.153239,-2.69338 2.5011479,2.5011479 0 0 0 -2.260849,-1.43867 z"
       id="path103"
       inkscape:connector-curvature="0" />
    <path
       inkscape:connector-curvature="0"
       style="fill:none;fill-opacity:1;stroke:#61c9c2;stroke-width:0.15345833;stroke-miterlimit:4;stroke-dasharray:none;stroke-opacity:1"
       d="m 110.27201,131.85627 a 7.4624634,7.4624628 0 0 1 -7.46246,7.46247 7.4624634,7.4624628 0 0 1 -7.46247,-7.46247 7.4624634,7.4624628 0 0 1 7.46247,-7.46246 7.4624634,7.4624628 0 0 1 7.46246,7.46246 z"
       id="path192" />
    <ellipse
       style="opacity:1;fill:#61c9c2;fill-opacity:1;stroke:none;stroke-width:0.15345833;stroke-miterlimit:4;stroke-dasharray:none;stroke-opacity:1"
       id="path1030"
       cx="108.39408"
       cy="139.52423"
       rx="0.74250919"
       ry="0.77344704" />
  </g>
</svg>
