<?xml version="1.0" encoding="UTF-8" standalone="no"?>
<!-- Created with Inkscape (http://www.inkscape.org/) -->

<svg
   xmlns:dc="http://purl.org/dc/elements/1.1/"
   xmlns:cc="http://creativecommons.org/ns#"
   xmlns:rdf="http://www.w3.org/1999/02/22-rdf-syntax-ns#"
   xmlns:svg="http://www.w3.org/2000/svg"
   xmlns="http://www.w3.org/2000/svg"
   xmlns:sodipodi="http://sodipodi.sourceforge.net/DTD/sodipodi-0.dtd"
   xmlns:inkscape="http://www.inkscape.org/namespaces/inkscape"
   version="1.1"
   id="svg283"
   width="1000"
   height="1422.9606"
   viewBox="0 0 1000 1422.9605"
   sodipodi:docname="Red Raven Logo.svg"
   inkscape:version="0.92.2 5c3e80d, 2017-08-06"
   style="enable-background:new">
  <metadata
     id="metadata289">
    <rdf:RDF>
      <cc:Work
         rdf:about="">
        <dc:format>image/svg+xml</dc:format>
        <dc:type
           rdf:resource="http://purl.org/dc/dcmitype/StillImage" />
        <dc:title></dc:title>
      </cc:Work>
    </rdf:RDF>
  </metadata>
  <defs
     id="defs287" />
  <sodipodi:namedview
     pagecolor="#ffffff"
     bordercolor="#666666"
     borderopacity="1"
     objecttolerance="10"
     gridtolerance="10"
     guidetolerance="10"
     inkscape:pageopacity="0"
     inkscape:pageshadow="2"
     inkscape:window-width="1652"
     inkscape:window-height="887"
     id="namedview285"
     showgrid="false"
     inkscape:zoom="0.45254834"
     inkscape:cx="-73.513624"
     inkscape:cy="708.62013"
     inkscape:window-x="236"
     inkscape:window-y="10"
     inkscape:window-maximized="0"
     inkscape:current-layer="layer1"
     fit-margin-top="0"
     fit-margin-left="0"
     fit-margin-right="0"
     fit-margin-bottom="0" />
  <text
     xml:space="preserve"
     style="font-style:normal;font-variant:normal;font-weight:bold;font-stretch:normal;font-size:414px;line-height:125%;font-family:Cinzel;-inkscape-font-specification:'Cinzel Bold';letter-spacing:0px;word-spacing:0px;fill:#000000;fill-opacity:1;stroke:none;stroke-width:1px;stroke-linecap:butt;stroke-linejoin:miter;stroke-opacity:1"
     x="-937.5"
     y="6329.3301"
     id="text1140"><tspan
       sodipodi:role="line"
       id="tspan1138"
       x="-937.5"
       y="6712.2803" /></text>
  <text
     xml:space="preserve"
     style="font-style:normal;font-variant:normal;font-weight:800;font-stretch:normal;font-size:414px;line-height:125%;font-family:Aenean;-inkscape-font-specification:'Aenean Ultra-Bold';letter-spacing:0px;word-spacing:0px;fill:#000000;fill-opacity:1;stroke:none;stroke-width:1px;stroke-linecap:butt;stroke-linejoin:miter;stroke-opacity:1"
     x="-1537.5"
     y="6579.3301"
     id="text1144"><tspan
       sodipodi:role="line"
       id="tspan1142"
       x="-1537.5"
       y="6999.0801" /></text>
  <text
     xml:space="preserve"
     style="font-style:normal;font-variant:normal;font-weight:800;font-stretch:normal;font-size:414px;line-height:125%;font-family:Aenean;-inkscape-font-specification:'Aenean Ultra-Bold';letter-spacing:0px;word-spacing:0px;fill:#000000;fill-opacity:1;stroke:none;stroke-width:1px;stroke-linecap:butt;stroke-linejoin:miter;stroke-opacity:1"
     x="-1487.5"
     y="1429.3303"
     id="text1148"><tspan
       sodipodi:role="line"
       id="tspan1146"
       x="-1487.5"
       y="1849.0803" /></text>
  <flowRoot
     xml:space="preserve"
     id="flowRoot1154"
     style="font-style:normal;font-variant:normal;font-weight:bold;font-stretch:normal;font-size:85.33333588px;line-height:125%;font-family:Cinzel;-inkscape-font-specification:'Cinzel Bold';letter-spacing:0px;word-spacing:0px;fill:#000000;fill-opacity:1;stroke:none;stroke-width:1px;stroke-linecap:butt;stroke-linejoin:miter;stroke-opacity:1"
     transform="translate(-4137.5,-21488.267)"><flowRegion
       id="flowRegion1156"><rect
         id="rect1158"
         width="13500"
         height="300"
         x="9500"
         y="-3032.4023" /></flowRegion><flowPara
       id="flowPara1160"></flowPara></flowRoot>  <g
     inkscape:groupmode="layer"
     id="layer1"
     inkscape:label="Layer 1"
     style="opacity:1"
     transform="translate(0,204.81763)">
    <rect
       style="opacity:1;fill:#ffffff;fill-opacity:1;stroke-width:11.11048603;enable-background:new"
       id="rect5455"
       width="1000"
       height="1422.9606"
       x="0"
       y="-204.81763"
       ry="93.655579" />
  </g>
  <g
     inkscape:groupmode="layer"
     id="layer2"
     inkscape:label="Layer 2"
     style=""
     transform="translate(0,204.81763)">
    <path
       style="enable-background:new;opacity:1;fill:#7d0309;fill-opacity:1;stroke-width:3.51805997"
       d="m 819.18851,934.45407 c -1.1891,-6.338 -4.6527,-15.08 -7.6969,-19.426 -4.5848,-6.546 -7.608,-7.514 -17.6116,-5.637 -15.299,2.87 -22.5539,-2.849 -22.5539,-17.778 0,-9.882 -1.8628,-12.188 -14.4205,-17.851 -15.797,-7.123 -29.418,-22.584 -33.1808,-37.662 -1.3279,-5.321 -4.6174,-9.674 -7.31,-9.674 -3.6217,0 -4.8957,-5.331 -4.8957,-20.485 0,-17.193 -2.6004,-25.812 -16.1873,-53.65 -8.903,-18.241 -19.2233,-40.821 -22.9339,-50.176 -3.7106,-9.355 -12.1494,-22.105 -18.7529,-28.333 -6.6034,-6.228 -12.7794,-15.197 -13.7243,-19.93 -0.945,-4.734 -4.4016,-19.688 -7.6815,-33.233 -3.2798,-13.545 -7.4654,-34.782 -9.3011,-47.195 -5.5599,-37.592 -22.4645,-62.511 -32.8092,-48.364 -2.3521,3.217 -5.9743,5.849 -8.0493,5.849 -2.0749,0 -4.7875,3.197 -6.0279,7.105 -2.2143,6.977 -2.3772,6.961 -8.9608,-0.879 -5.7395,-6.835 -7.2148,-7.225 -10.2411,-2.708 -2.9211,4.359 -3.545,3.986 -3.5895,-2.151 -0.042,-5.847 -1.7786,-7.098 -8.1577,-5.879 -6.106,1.167 -9.1229,-0.687 -12.2378,-7.524 -2.2737,-4.99 -5.8686,-9.073 -7.9886,-9.073 -2.1201,0 -12.9518,-8.677 -24.0705,-19.282 -21.5732,-20.578 -41.6881,-29.971 -64.1815,-29.971 -7.5207,0 -34.6306,7.279 -60.2443,16.174 -26.3957,9.168 -64.0968,19.13 -87.028,22.997 -36.2404,6.111 -43.9415,8.784 -73.8793,25.643 -50.4594,28.416 -72.7237,38.84 -105.3248,49.314 -34.025795,10.932 -49.069595,18.103 -81.132295,38.675 -12.5771,8.069 -24.8683001,15.884 -27.3140001,17.365 -8.5657,5.188 16.8501001,-33.313 39.5643001,-59.934 12.6117,-14.781 22.9303,-28.031 22.9303,-29.445 0,-1.414 -3.4732,-3.479 -7.7181,-4.589 -7.6674,-2.005 -7.6732,-2.068 -0.8795,-9.593 8.6984,-9.634 51.549095,-37.533 70.828695,-46.114 8.1055,-3.608 21.2622,-12.829 29.2371,-20.491 17.6478,-16.956 99.8394,-66.544 127.0206,-76.635 10.8451,-4.026 25.4977,-11.241 32.5611,-16.035 7.0635,-4.793 20.8404,-10.765 30.6154,-13.27 15.8513,-4.063 17.5573,-5.414 15.7794,-12.497 -1.6913,-6.739 2.8142,-11.658 29.7331,-32.462 26.0029,-20.096 35.3702,-25.247 51.9242,-28.55 39.6322,-7.907 46.5878,-10.891 66.7402,-28.629 l 20.3007,-17.868 27.1376,2.033 c 25.8204,1.935 27.6861,1.57 38.4377,-7.521 6.2151,-5.255 27.2489,-21.459 46.7417,-36.009 27.8274,-20.77 35.5155,-28.352 35.786,-35.291 0.1892,-4.861 2.304,-12.499 4.699,-16.975 3.743,-6.993 3.3241,-9.233 -2.983,-15.947 -4.0357,-4.295 -7.3376,-9.687 -7.3376,-11.981 0,-2.822 -8.2471,-4.206 -25.5059,-4.279 -32.5382,-0.139 -76.1484,-5.76 -81.933,-10.559998 -2.4563,-2.039 -8.971,-2.747 -14.4772,-1.574 -9.832,2.094 -9.7594,1.902 4.0611,-10.734 20.1023,-18.379 40.7512,-27.811 80.9154,-36.958 26.2119,-5.969 38.1075,-10.545 46.6618,-17.949 6.3146,-5.465 16.191,-12.372 21.9475,-15.349 33.66,-17.4059999 124.825,-21.1139999 153.2684,-6.2339999 18.1257,9.4819999 35.6187,28.8429999 60.375,66.8229999 18.1759,27.883998 20.125,32.966998 27.86,72.649998 11.1026,56.96 17.4768,75.48 31.0329,90.162 20.6051,22.316 22.97359,27.953 22.97359,54.674 0,32.163 -7.97119,59.324 -19.80979,67.499 -20.0848,13.87 -38.6989,32.366 -65.2419,64.829 -26.0844,31.901 -29.576,34.821 -53.2269,44.513 -13.9211,5.704 -27.6859,11.172 -30.5883,12.15 -4.6907,1.582 -4.6907,1.956 0,3.368 2.9024,0.874 15.5674,5.142 28.1445,9.485 12.5771,4.343 28.8876,8.402 36.2456,9.019 27.991,2.347 36.7814,5.556 46.1291,16.84 12.363,14.923 14.5162,24.938 9.5631,44.482 -2.883,11.376 -3.0373,19.785 -0.5218,28.441 1.9644,6.76 3.5716,15.741 3.5716,19.959 0,10.066 -16.3768,29.317 -24.9391,29.317 -8.818,0 -8.4945,-2.156 2.2359,-14.909 8.7829,-10.437 8.8275,-10.77 2.2616,-16.887 -3.6837,-3.432 -7.7628,-12.901 -9.0646,-21.042 -2.1511,-13.452 -21.9044,-48.2 -25.4084,-44.696 -0.806,0.806 2.8117,10.812 8.0393,22.235 7.2438,15.829 9.556,26.483 9.7203,44.787 0.2093,23.351 -0.1489,24.351 -12.9257,36.06 -18.121,16.607 -28.2772,16.313 -13.6088,-0.393 12.9397,-14.737 13.2232,-16.922 3.462,-26.683 -6.2411,-6.242 -7.0989,-10.067 -5.2621,-23.468 1.9824,-14.464 0.9437,-17.827 -10.7482,-34.804 l -12.9428,-18.792 -5.1344,13.236 c -2.8239,7.28 -5.3551,17.986 -5.625,23.79 -0.2698,5.805 -1.5918,12.303 -2.9378,14.441 -2.4761,3.932 5.8944,12.999 21.9624,23.788 l 8.7952,5.906 -12.3132,-2.135 c -21.2349,-3.683 -31.8201,-9.232 -37.1055,-19.453 -7.1317,-13.791 -6.3712,-37.132 2.0029,-61.472 3.9128,-11.373 6.36,-22.643 5.4381,-25.045 -0.9218,-2.403 -11.2356,-9.194 -22.9195,-15.092 -20.8001,-10.499 -21.7767,-10.643 -46.7754,-6.886 -36.5841,5.499 -40.3674,7.607 -45.0535,25.105 -2.2252,8.31 -8.0514,24.607 -12.9472,36.217 -7.251,17.195 -9.1173,28.115 -10.0661,58.901 -0.6406,20.786 -2.8099,40.867 -4.8207,44.624 -8.2573,15.429 -2.0478,42.196 16.6154,71.625 5.8384,9.206 11.7284,24.161 13.0889,33.234 1.3605,9.072 5.6341,24.942 9.4969,35.266 3.8627,10.325 6.1903,20.942 5.1725,23.594 -2.1539,5.613 8.4231,10.833 11.5848,5.717 1.3596,-2.2 7.1835,-2.273 16.1125,-0.203 7.6909,1.783 27.9077,3.28 44.9263,3.326 28.1038,0.08 31.7353,0.876 39.5782,8.719 8.2356,8.236 12.0612,26.545 5.5463,26.545 -1.6989,0 -5.3917,-3.468 -8.2062,-7.707 -4.6604,-7.019 -6.0833,-7.306 -15.9411,-3.223 -7.9756,3.304 -12.6987,3.48 -17.948,0.671 -6.5362,-3.498 -42.7672,-5.582 -42.7672,-2.46 0,0.744 11.2891,12.356 25.0868,25.803 23.3772,22.783 25.2029,25.657 26.7892,42.165 1.9228,20.012 -4.1589,28.542 -7.5317,10.563 z m -232.5558,-49.98 c 7.1189,-33.494 27.2294,-46.039 82.4907,-51.458 21.5991,-2.119 40.3277,-2.795 41.6192,-1.504 3.0664,3.067 -6.369,19.573 -13.8646,24.256 -4.1578,2.597 -10.0598,2.261 -20.4366,-1.164 -11.5548,-3.813 -16.9782,-3.952 -26.0663,-0.666 -6.3117,2.283 -16.5805,4.15 -22.8196,4.15 -11.5804,0 -19.1244,5.679 -35.0491,26.386 l -8.117,10.554 z"
       id="path293"
       inkscape:connector-curvature="0" />
    <g
       aria-label="R"
       style="enable-background:new;opacity:1;font-style:normal;font-variant:normal;font-weight:normal;font-stretch:normal;font-size:533.33331299px;line-height:125%;font-family:Cinzel;-inkscape-font-specification:Cinzel;letter-spacing:0px;word-spacing:0px;fill:#7d0309;fill-opacity:1;stroke:none;stroke-width:1px;stroke-linecap:butt;stroke-linejoin:miter;stroke-opacity:1"
       id="text5050"
       transform="matrix(-1,0,0,1,542.03108,-141.42136)">
      <path
         d="m 193.30875,780.88006 v 5.33333 h 6.39999 c 18.66667,0 34.13334,14.93334 34.13334,33.6 v 296.00001 c -0.53334,18.6666 -15.46667,33.6 -34.13334,33.6 h -6.39999 v 5.3333 h 116.26666 v -5.3333 h -6.93334 c -18.66666,0 -33.59999,-15.4667 -34.13333,-33.6 V 797.94673 c 6.93334,0 39.46667,-1.06667 66.66667,0 39.46666,2.13333 64.53333,33.06666 66.13333,81.59999 0,11.73334 -1.06667,24.53334 -3.73334,32 -14.93333,48 -55.46666,54.4 -83.19999,55.46667 -16,0 -28.26667,0 -28.26667,0 v 4.8 c 19.73333,0 35.2,18.66666 49.06667,36.26671 4.26666,4.8 64.53333,92.2666 70.39999,99.7333 16.53334,19.7333 43.2,46.4 92.8,46.4 h 29.33333 v -5.3334 c -30.93333,0 -50.66666,-16.5333 -72.53333,-40 -20.26666,-22.4 -66.66666,-88.5333 -66.66666,-88.5333 -10.13334,-14.4 -26.66667,-31.99998 -37.86667,-37.33331 51.2,0 90.66667,-50.13334 90.66667,-101.86667 0,-61.86666 -40,-100.26666 -104.53333,-100.26666 z"
         style="fill:#7d0309;fill-opacity:1"
         id="path5052"
         inkscape:connector-curvature="0" />
    </g>
    <g
       aria-label="R"
       style="enable-background:new;opacity:1;font-style:normal;font-variant:normal;font-weight:normal;font-stretch:normal;font-size:533.33331299px;line-height:125%;font-family:Cinzel;-inkscape-font-specification:Cinzel;letter-spacing:0px;word-spacing:0px;fill:#000000;fill-opacity:1;stroke:none;stroke-width:1px;stroke-linecap:butt;stroke-linejoin:miter;stroke-opacity:1"
       id="text5057">
      <path
         d="m 350.19806,639.45867 v 5.33334 h 6.4 c 18.66666,0 34.13333,14.93333 34.13333,33.59999 v 295.99999 c -0.53333,18.66667 -15.46667,33.60001 -34.13333,33.60001 h -6.4 v 5.3333 h 116.26666 v -5.3333 h -6.93333 c -18.66667,0 -33.6,-15.46667 -34.13334,-33.60001 V 656.52534 c 6.93334,0 39.46667,-1.06667 66.66667,0 39.46666,2.13333 64.53333,33.06666 66.13333,81.6 0,11.73333 -1.06667,24.53333 -3.73333,31.99999 -14.93334,48 -55.46667,54.4 -83.2,55.46667 -16,0 -28.26667,0 -28.26667,0 v 4.8 c 19.73334,0 35.2,18.66667 49.06667,36.26666 4.26667,4.8 64.53333,92.26667 70.4,99.73333 16.53333,19.73334 43.19999,46.40001 92.79999,46.40001 h 29.33334 v -5.3333 c -30.93334,0 -50.66667,-16.53337 -72.53334,-40.00004 -20.26666,-22.4 -66.66666,-88.53333 -66.66666,-88.53333 -10.13333,-14.4 -26.66667,-32 -37.86666,-37.33333 51.19999,0 90.66666,-50.13333 90.66666,-101.86666 0,-61.86667 -40,-100.26667 -104.53333,-100.26667 z"
         id="path5059"
         inkscape:connector-curvature="0" />
    </g>
  </g>
</svg>
