<?xml version="1.0" encoding="UTF-8" standalone="no"?>
<!-- Created with Inkscape (http://www.inkscape.org/) -->

<svg
   xmlns:dc="http://purl.org/dc/elements/1.1/"
   xmlns:cc="http://creativecommons.org/ns#"
   xmlns:rdf="http://www.w3.org/1999/02/22-rdf-syntax-ns#"
   xmlns:svg="http://www.w3.org/2000/svg"
   xmlns="http://www.w3.org/2000/svg"
   xmlns:sodipodi="http://sodipodi.sourceforge.net/DTD/sodipodi-0.dtd"
   xmlns:inkscape="http://www.inkscape.org/namespaces/inkscape"
   version="1.1"
   id="svg1628"
   width="864.11969"
   height="866.62604"
   viewBox="0 0 864.11969 866.62604"
   sodipodi:docname="Sun-Female-Symbol.svg"
   inkscape:version="0.92.2 5c3e80d, 2017-08-06">
  <metadata
     id="metadata1634">
    <rdf:RDF>
      <cc:Work
         rdf:about="">
        <dc:format>image/svg+xml</dc:format>
        <dc:type
           rdf:resource="http://purl.org/dc/dcmitype/StillImage" />
        <dc:title></dc:title>
      </cc:Work>
    </rdf:RDF>
  </metadata>
  <defs
     id="defs1632" />
  <sodipodi:namedview
     pagecolor="#ffffff"
     bordercolor="#666666"
     borderopacity="1"
     objecttolerance="10"
     gridtolerance="10"
     guidetolerance="10"
     inkscape:pageopacity="0"
     inkscape:pageshadow="2"
     inkscape:window-width="1463"
     inkscape:window-height="804"
     id="namedview1630"
     showgrid="false"
     fit-margin-top="0"
     fit-margin-left="0"
     fit-margin-right="0"
     fit-margin-bottom="0"
     inkscape:zoom="0.2718059"
     inkscape:cx="402.17477"
     inkscape:cy="429.89349"
     inkscape:window-x="284"
     inkscape:window-y="12"
     inkscape:window-maximized="0"
     inkscape:current-layer="svg1628" />
  <path
     style="fill:#117f9a;stroke-width:1.0666666;fill-opacity:1"
     d="m 544.04341,859.46506 c -7.83497,-12.72223 -71.43007,-122.21177 -75.34918,-129.72615 -0.86457,-1.65768 -0.95198,-2.87398 -0.25653,-3.56944 0.58021,-0.5802 10.65817,-1.45009 22.39546,-1.93307 l 21.34053,-0.87814 17.69271,-9.80396 c 10.17875,-5.6403 18.37673,-9.54147 19.30336,-9.1859 1.41674,0.54366 1.61065,10.31028 1.61065,81.12193 0,47.98843 -0.39729,80.7494 -0.98363,81.11178 -0.54101,0.33436 -3.13002,-2.87731 -5.75337,-7.13705 z m -335.65495,-39.4783 c 0.0218,-3.60245 39.5495,-150.89153 41.21991,-153.5943 1.31009,-2.11978 4.59168,0.24533 18.68112,13.46385 l 15.20972,14.26953 14.44061,4.02792 c 18.09835,5.04816 25.64059,7.78581 25.64059,9.3069 0,1.48164 -6.45655,8.06508 -65.37476,66.65943 -26.10349,25.96 -47.99285,47.2 -48.64306,47.2 -0.6502,0 -1.17856,-0.6 -1.17413,-1.33333 z m 606.39195,-163.1884 c -74.74647,-19.2926 -146.68937,-38.89377 -148.23432,-40.38713 -1.59953,-1.54611 0.9004,-4.86576 14.73876,-19.57155 l 12.63776,-13.42993 5.79976,-19.34075 c 3.18987,-10.63739 6.0512,-19.74757 6.35852,-20.24482 1.75169,-2.83428 2.82799,-1.82311 67.53877,63.45194 26.45175,26.6824 48.09408,49.03782 48.09408,49.67872 0,1.36341 -1.14481,1.33757 -6.93333,-0.15648 z m -410.53779,-3.53313 c -62.48553,-8.50938 -119.6762,-43.99585 -154.42064,-95.8171 -19.75623,-29.46638 -32.16838,-62.21329 -36.74089,-96.93332 -2.13438,-16.20676 -1.55222,-49.74541 1.11198,-64.06136 14.70753,-79.0305 65.31331,-141.17283 138.70701,-170.32792 39.7555,-15.79258 89.67711,-19.24299 131.43703,-9.08447 88.68412,21.57329 154.54501,93.22014 168.51054,183.31441 2.28758,14.75757 2.52885,47.94582 0.45483,62.56463 -14.24518,100.40793 -91.7689,176.83435 -193.18873,190.45427 -13.85204,1.86022 -41.81082,1.80561 -55.87113,-0.10914 z m 42.75891,-13.8179 c 3.76238,-1.1173 6.58062,-2.90368 9.26027,-5.86974 l 3.85195,-4.26364 v -15.3874 c 0,-12.56633 0.3073,-15.69471 1.67619,-17.0636 1.40316,-1.40315 4.8947,-1.67619 21.43534,-1.67619 18.07227,0 20.0158,-0.18276 22.76559,-2.14078 4.77327,-3.39887 7.45621,-10.14071 7.45621,-18.73637 0,-9.58261 -1.3075,-13.90258 -5.52476,-18.25368 l -3.42706,-3.53583 -12.85743,-0.0758 c -18.24018,-0.10766 -29.29559,-1.25213 -30.50058,-3.15743 -1.57211,-2.48578 -1.29541,-39.75754 0.30983,-41.7337 0.73333,-0.90279 4.69333,-2.51404 8.8,-3.58054 24.34225,-6.32175 48.50752,-21.21984 67.62663,-41.69241 34.04205,-36.45189 45.61949,-91.90397 29.41254,-140.87629 -17.20825,-51.99796 -63.94024,-89.84827 -117.83917,-95.44325 -14.17181,-1.4711 -35.19726,-0.49425 -46.93333,2.18054 -76.17229,17.36055 -123.47929,91.3789 -107.74599,168.58352 9.98178,48.98141 47.8607,90.44756 96.54599,105.68915 13.58911,4.25425 13.59748,4.25913 14.72355,8.59409 1.1477,4.41823 0.5704,37.77368 -0.67541,39.02386 -0.48686,0.48856 -10.17348,1.1283 -21.52581,1.42163 -18.68992,0.48293 -20.91794,0.74066 -23.57495,2.72714 -4.9293,3.68531 -6.99065,9.01511 -7.08463,18.31804 -0.10411,10.31058 1.48491,15.26026 6.23949,19.43484 l 3.70532,3.25331 h 19.49235 c 15.13859,0 19.95482,0.33776 21.56288,1.51218 1.84199,1.34525 2.12941,3.25857 2.60387,17.33334 0.64479,19.12731 1.98287,22.11859 11.39606,25.47575 5.53486,1.97397 22.09096,1.93912 28.82506,-0.0607 z M 410.43538,457.68431 c -22.07068,-5.96413 -42.19609,-20.25812 -54.42765,-38.65701 -30.38068,-45.69907 -16.49408,-105.37861 31.03935,-133.39575 15.82675,-9.32859 27.59616,-11.95808 50.43405,-11.26779 13.99128,0.42288 16.7075,0.82438 24.96633,3.69047 14.94833,5.18756 24.61285,11.27909 36.06629,22.73253 19.10698,19.10699 27.73333,40.06673 27.73333,67.3847 0,34.77575 -21.58822,68.27921 -53.76982,83.44708 -13.2777,6.25807 -18.25832,7.2993 -36.89685,7.71351 -14.83214,0.32964 -18.78657,0.0705 -25.14503,-1.64774 z M 40.420544,550.64022 c -21.6846,-0.15393 -39.84607983,-0.69942 -40.35884983,-1.21219 -1.02795,-1.02794 10.44314983,-8.06606 60.58538983,-37.17222 65.383326,-37.9532 77.682266,-44.86819 78.942226,-44.38471 1.48621,0.57032 2.65695,14.31092 2.65943,31.21286 l 0.002,11.3028 7.04534,12.8 c 10.66517,19.37648 13.46786,25.24656 12.49978,26.18 -1.03563,0.99856 -65.225966,1.67205 -121.374976,1.27346 z M 726.27274,397.89496 c -0.3979,-0.64382 -1.2229,-10.87654 -1.83334,-22.73939 l -1.10989,-21.56881 -8.96171,-16.31132 c -4.92894,-8.97123 -9.07248,-17.37123 -9.20788,-18.66667 l -0.24618,-2.35534 70.93334,-0.32232 c 72.91835,-0.33135 88.95428,0.0847 88.25076,2.28936 -0.52312,1.63934 -129.17388,77.80289 -135.55777,80.25263 -0.84913,0.32583 -1.86943,0.0657 -2.26733,-0.57814 z M 102.42956,268.56976 c -29.819626,-30.09398 -54.964646,-55.8113 -55.877816,-57.14962 -0.91317,-1.3383 -1.39191,-2.70168 -1.06387,-3.02972 0.60225,-0.60225 103.224066,26.09325 136.747906,35.57289 13.75457,3.88943 18.20733,5.56742 18.47602,6.96256 0.22374,1.1618 -3.54324,5.86512 -10.23803,12.78285 -17.74397,18.33481 -17.6038,18.0813 -26.84043,48.54471 -2.5093,8.27598 -3.76117,10.94541 -5.15064,10.983 -1.0461,0.0283 -25.15496,-23.48423 -56.05314,-54.66667 z m 497.41752,-80.90797 c -7.92,-7.62602 -15.6,-14.50533 -17.06667,-15.28734 -1.46666,-0.78202 -9.14666,-3.2368 -17.06666,-5.45509 -18.42968,-5.16189 -22.39101,-6.73589 -22.43677,-8.91508 -0.0427,-2.03173 110.6905,-112.150847 112.77623,-112.150847 0.76663,0 1.39387,0.567665 1.39387,1.261477 0,2.435456 -33.24584,130.60516 -38.68339,149.13262 -0.77386,2.63675 -2.10667,4.90336 -2.96181,5.03693 -0.85514,0.13356 -8.0348,-5.99665 -15.9548,-13.62267 z m -283.0834,-26.41971 c -1.18392,-1.9156 -1.96934,-79.949568 -1.2073,-119.948464 0.69113,-36.2766104 1.02577,-42.24599105 2.30862,-41.18131665 1.85435,1.53897045 11.99261,18.44650665 39.58025,66.00779965 33.77586,58.229831 40.80183,70.762131 40.80183,72.778651 0,1.05418 -0.82441,1.92606 -1.86667,1.97416 -1.02666,0.0474 -10.75478,0.41739 -21.61803,0.82225 l -19.75137,0.73611 -13.84863,7.59161 c -14.64528,8.02834 -22.49673,12.09722 -23.34318,12.09722 -0.28209,0 -0.75707,-0.39511 -1.05552,-0.87802 z"
     id="path1638"
     inkscape:connector-curvature="0" />
</svg>
